# xmcd
#
# Track frame offsets:
#	150
#	13456
#	28129
#	43512
#	58952
#	74191
#	90211
#	107520
#	123434
#
# Disc length: 1867 seconds
#
# Revision: 1
# Processed by: cddbd v1.5.1PL2 Copyright (c) Steve Scherf et al.
# Submitted via: audiograbber 1.83.01
#
DISCID=7e074909
DTITLE=BILJANA BRKIC-BIBI - Bolest ljubavi
DYEAR=2003
DGENRE=Pop
TTITLE0=Varam te
TTITLE1=Uradila bih sve
TTITLE2=Kriv si ti
TTITLE3=Lud si
TTITLE4=Ti si moj
TTITLE5=Sta ces potrebe
TTITLE6=Osecam i znam
TTITLE7=Smirimo starsti
TTITLE8=Ispravi me ako gresim
EXTD=
EXTT0=
EXTT1=
EXTT2=
EXTT3=
EXTT4=
EXTT5=
EXTT6=
EXTT7=
EXTT8=
PLAYORDER=
